<svg xmlns="http://www.w3.org/2000/svg" width="1920" height="1080"><defs><clipPath id="a"><path d="M1920 1053.18c-240.57-81.41-399.12 40.25-695.42-26.63-276.3-62.37-339.09-85.38-627.34-2.98-155.67 42.33-173.49-31.89-294.44-3.96-119.16 27.52-151.53 28.09-212.03 0-55-25.53-90.77-6.56-90.77-6.56V1080h1920v-26.82Z" style="fill:none"/></clipPath><clipPath id="b"><path d="M955.77 1007.18c22.48-22.76 23.9-18.95 28.25 4.49 18.19 2.05 46.88 13.38 2.07 16.83 7.71 27.48-.41 28.54-23.78 2.95-29.03 13.6-44.7 15.7-19.82-10.26-25.15-13.32-19.9-19.49 13.29-14Z" style="clip-rule:evenodd;fill:none"/></clipPath><clipPath id="c"><path style="fill:none" d="M0 0h1920v1080H0z"/></clipPath></defs><path style="fill:#e2dcfe" d="M0 0h1920v1080H0z"/><path d="M29.09 47.56c0 11.54 222.66 13.2 248.52 9.05 25.86-4.16-19.76-13.48-71.02-16.25-51.26-2.77-177.49-4.34-177.49 7.21ZM271.97 25.22c-4.9 11.91 79.15 10.82 83.76 0 4.62-10.82-78.87-11.91-83.76 0ZM355.92 48.52c0 8.92 81.36 7.07 124.63 7.07s94.53-8.6 60.82-21.85c-33.71-13.25-71.57 7.53-93.28 7.53s-92.17-1.67-92.17 7.24ZM552.28 21.75c0 12.08 57.72 13.93 57.72 2.59s-57.72-14.67-57.72-2.59Z" style="fill:#f7f7f7"/><ellipse cx="428.77" cy="23.01" rx="28.25" ry="6.32" transform="rotate(-3.8 428.517 22.967)" style="fill:#f7f7f7"/><path d="M657.3 22.89c2.21 8.5 45.77 9.44 45.77 0s-47.99-8.5-45.77 0ZM618.44 48.37c16.44 8.37 122.29 4.05 151.47-.82 29.18-4.88 18.94-16.07-11.8-15.55-30.73.51-59.91 9.95-75.74 9.95s-37.25-7.59-48.42-7.59-31.95 5.65-15.51 14.02ZM821.72 22.89c-11.8 7.82-2.79 23.03 62.08 23.65 64.88.62 210.15 4.04 232.5-.93 22.35-4.97 5.9-22.72-24.52-22.72s-112.06 1.92-161.41 1.92-96.85-9.74-108.64-1.92ZM1148.47 26.14c.2 6.25 26.71 12.78 45.16 5.94 18.45-6.84 2.7-16.37-15.45-16.37s-29.91 4.18-29.71 10.43ZM1208.28 43.44c-2.08 7.29 31.23 14.32 50.23 9.63 19-4.68 22.64-16.06 4.16-16.06s-52.31-.86-54.4 6.43ZM1277.68 22.84c2.59 9.35 31.88 3.42 87.21 7.53s116.07 9.76 116.07.04c0-15.14-206.17-17.98-203.29-7.58ZM1491.64 16.65c0 8.6 80.43 12.8 80.43 2.6s-80.43-11.2-80.43-2.6Z" style="fill:#f7f7f7"/><circle cx="1776.21" cy="176.01" r="6.9" style="fill:#f7f7f7"/><circle cx="1380.86" cy="600.58" r="6.9" style="fill:#f7f7f7"/><circle cx="1223.37" cy="118.73" r="6.9" style="fill:#f7f7f7"/><circle cx="1782.71" cy="468.57" r="6.9" style="fill:#f7f7f7"/><circle cx="118.39" cy="216.75" r="6.9" style="fill:#f7f7f7"/><circle cx="1828.07" cy="890.06" r="6.9" style="fill:#f7f7f7"/><circle cx="1789.21" cy="688.26" r="6.9" style="fill:#f7f7f7"/><circle cx="287.67" cy="404.64" r="6.9" style="fill:#f7f7f7"/><circle cx="1090.3" cy="695.16" r="6.9" style="fill:#f7f7f7"/><circle cx="188.87" cy="947.85" r="6.9" style="fill:#f7f7f7"/><circle cx="1871.68" cy="322.04" r="5.09" style="fill:#f7f7f7"/><circle cx="1870.41" cy="506.41" r="5.09" style="fill:#f7f7f7"/><circle cx="106.21" cy="883.17" r="5.09" style="fill:#f7f7f7"/><circle cx="321.83" cy="359.99" r="5.09" style="fill:#f7f7f7"/><circle cx="1736.41" cy="955.58" r="5.09" style="fill:#f7f7f7"/><circle cx="718.92" cy="303.62" r="5.09" style="fill:#f7f7f7"/><circle cx="960" cy="151.32" r="5.09" style="fill:#f7f7f7"/><circle cx="122.78" cy="688.05" r="5.09" style="fill:#f7f7f7"/><circle cx="1806.43" cy="729.65" r="5.09" style="fill:#f7f7f7"/><circle cx="487.96" cy="762.68" r="5.09" style="fill:#f7f7f7"/><circle cx="1305.49" cy="352.58" r="5.09" style="fill:#f7f7f7"/><circle cx="1861.31" cy="286.31" r="9.1" style="fill:#f7f7f7"/><circle cx="1281.07" cy="388.63" r="9.1" style="fill:#f7f7f7"/><circle cx="131.77" cy="251.26" r="9.1" style="fill:#f7f7f7"/><circle cx="1624.63" cy="941.47" r="9.1" style="fill:#f7f7f7"/><circle cx="877.98" cy="129.83" r="8.36" style="fill:#f7f7f7"/><circle cx="133.17" cy="715.93" r="8.36" style="fill:#f7f7f7"/><circle cx="1876.51" cy="609.69" r="9.1" style="fill:#f7f7f7"/><circle cx="749.62" cy="352.58" r="9.1" style="fill:#f7f7f7"/><path d="M1777.12 1057.11h142.85V921.7c-146.34 2.54-142.85 135.41-142.85 135.41Z" style="fill:#b8aeff"/><path d="M555.17 1024.04c-25.46-14.03-57.71 2.8-57.71 2.8-37.58-37.66-90.88-13.88-90.88-13.88-39.41-39.49-91.3-35.01-131.96-2.04-78.85-54.07-156.14-15.86-156.14-15.86C73.13 922.1 0 944.82 0 944.82V1080h574.6l.71-19.99c.53-14.82-7.17-28.83-20.15-35.97ZM1360.99 1065.59c0-22.33 16.35-41.52 38.43-44.4 27.62-3.6 42.6 13.39 53.47 13.39 15.09 0 37.52-15.13 66.64-18.16 29.13-3.03 51.45 8.93 68.45 8.93s58.4-34.32 94.19-37.52 68.69 24.45 91.44 11.31c40.95-23.66 72.62-1.06 72.62-1.06s42.35-31.37 73.77-8.03v81.96h-559.01v-6.41Z" style="fill:#f7f7f7"/><path d="M1920 1053.18c-240.57-81.41-399.12 40.25-695.42-26.63-276.3-62.37-339.09-85.38-627.34-2.98-155.67 42.33-173.49-31.89-294.44-3.96-119.16 27.52-151.53 28.09-212.03 0-55-25.53-90.77-6.56-90.77-6.56V1080h1920v-26.82Z" style="fill:#b8aeff"/><path d="M762.44 1055.07c0 6.09-41.79 20.33-43.48 13.81s43.48-23.19 43.48-13.81Z" style="fill:#8d7cf7"/><path d="M651.16 1044.53c37.92-2.65 60.97-13.65 41.48-19.81-19.48-6.16-66.88-2.85-85.32 5.96-18.44 8.81 5.92 16.5 43.84 13.86Z" style="fill:#8d7cf7;fill-rule:evenodd"/><path d="M633.56 1036.73c2.23-.2 4.52-.47 6.88-.81 3.73-.53 7.63-1.22 11.65-2.09.31-.06.63-.14.95-.21 1.33-.3 2.66-.61 3.96-.92 36.74-9.05 56.18-26.69 34.94-32.7-7.24-2.05-17.44-2.25-28.45-1.06-2.24.25-4.52.55-6.81.9-5.56.87-11.22 2.05-16.73 3.48-2.35.61-4.67 1.28-6.94 1.98-12.2 3.76-23.03 8.76-29.45 14.31-14.25 12.31 1.89 19.77 30 17.13Z" style="fill:#f7f7f7;fill-rule:evenodd"/><path d="M652.09 1033.83c.31-.06.63-.14.95-.21 1.33-.3 2.66-.61 3.96-.92-.66-.87-1.36-2.14-1.72-3.04-4.89-11.73-1.16-23.33 8.22-30.72-2.24.25-4.52.55-6.81.9-3.44 3.39-6.12 7.56-7.36 12.33-1.92 7.2-1.25 15.29 2.77 21.67ZM633.56 1036.73c2.23-.2 4.52-.47 6.88-.81-2.03-.87-3.86-2.66-5.22-4.66-6.29-9.27-2.44-20.36 4.73-27.95-2.35.61-4.67 1.28-6.94 1.98-3.68 4.52-6.07 10.03-6.02 16.07 0 5.54 2.3 11.65 6.57 15.37Z" style="fill:#e2dcfe"/><g style="clip-path:url(#a)"><path d="M452.32 1025.15c-68.38 59.01-178.74.13-222.64 58.68M919.37 965.27c-42.32 20.62-99.32 64.97-107.65 71.52-.67.53-1.51.78-2.36.73-96.51-5.92-122.48 47.97-122.48 47.97M1010.86 976.34c19.16 44.37 4.5 109.15 4.5 109.15M1593.18 1029.91c72.52 4.87 108.75 56.76 108.75 56.76M1717.36 1017.22c87.64 7.9 164.08 69.45 164.08 69.45" style="fill:none;stroke:#8d7cf7;stroke-miterlimit:10;stroke-width:4px"/></g><path d="M988.61 1080c-62.63-51.38-104.19-4.36-104.19-4.36-40.18-23.37-49.07 4.36-49.07 4.36h153.26ZM574.6 1080c-103.29-45.85-168.02 0-168.02 0H574.6ZM1810.13 1075.48c-23.03-27.9-52.01-20.23-38.2 4.52h137.08c-73.96-33.5-98.88-4.52-98.88-4.52Z" style="fill:#8d7cf7"/><ellipse cx="1590.84" cy="1058.57" rx="6.61" ry="4.63" style="fill:#8d7cf7"/><circle cx="1717.76" cy="1037.55" r="4.76" style="fill:#8d7cf7"/><ellipse cx="1410.45" cy="1062.98" rx="9.02" ry="4.5" transform="rotate(-8.4 1411.328 1063.507)" style="fill:#e2dcfe"/><circle cx="1355.57" cy="1055.17" r="3.75" style="fill:#8d7cf7"/><ellipse cx="343.86" cy="1039.8" rx="4.98" ry="6.41" transform="rotate(-82.47 343.905 1039.825)" style="fill:#8d7cf7"/><circle cx="888.87" cy="1009.51" r="6.88" style="fill:#8d7cf7"/><path d="M955.77 1007.18c22.48-22.76 23.9-18.95 28.25 4.49 18.19 2.05 46.88 13.38 2.07 16.83 7.71 27.48-.41 28.54-23.78 2.95-29.03 13.6-44.7 15.7-19.82-10.26-25.15-13.32-19.9-19.49 13.29-14Z" style="fill:#e2dcfe;fill-rule:evenodd"/><g style="clip-path:url(#b)"><path d="M998.45 1032.79c-13.04-14.78-31.33-17.87-46.07-3.66-4.24 4.11-7.57 9.17-9.99 14.66l-2.46-.99c2.19-5.93 5.56-11.49 10.06-16.07 12.08-12.62 30.53-14.08 43.88-2.49 2.44 2.07 4.64 4.37 6.6 6.84l-2.02 1.71Z" style="fill:#b8aeff"/></g><path d="M950.7 1014.91c-2.92 2.47-6.11 2.41-5.73-.11s4.03-5.6 6.58-5.55 2.07 3.2-.85 5.67Z" style="fill:#b8aeff;fill-rule:evenodd"/><ellipse cx="791.89" cy="1008.98" rx="6.41" ry="4.98" transform="rotate(-13.52 791.922 1008.986)" style="fill:#e2dcfe"/><g style="clip-path:url(#c)"><path d="M1704.73-16.65c65.88 22.01 71.9 85.29 96.65 116.84s70.28 33.02 136.85-2.85" style="fill:none;fill-rule:evenodd;stroke:#f7f7f7;stroke-linecap:round;stroke-miterlimit:10;stroke-width:4.39px"/><path d="M1927.96 187.25c-56.1 7.24-80.75-29.97-42.35-34.42M1938.22 207.82c-49.46 18.33-61.25-14.16-61.25-14.16-20.87 35.42-40.52 22.64-40.52-6.4M1927.7 227.81c-46-10.65-49.22 14.61-47.6 30.66" style="fill:none;stroke:#b8aeff;stroke-linecap:round;stroke-linejoin:round;stroke-width:4.79px"/><path d="M1931.13 169.97c-29.38 16.21-26.34-12.69-26.34-12.69" style="fill:none;stroke:#b8aeff;stroke-linecap:round;stroke-linejoin:round;stroke-width:4.79px"/><path d="M-16.69 153.13c133.64 7.04 148.02-48.24 134.75-58.05s-33.56 8.52-21.45 30.88c-51.58-23.38-63.21 17.2-63.21 17.2-38.92-28.74-50.08 9.96-50.08 9.96Z" style="fill:#b8aeff"/><path d="M-10.99 162.45c118.61 2.14 94.64 34.11 78.08 33.81-16.56-.3-27.37-20.78-27.37-20.78-30.09 15.02-50.7-13.03-50.7-13.03Z" style="fill:#8d7cf7"/><path d="m-24.41 295.41 13.42 318.95s128.35-99.45-13.42-318.95Z" style="fill:#f7f7f7;fill-rule:evenodd"/></g></svg>