<svg xmlns="http://www.w3.org/2000/svg" width="79.63" height="82.27"><defs><clipPath id="a"><path d="M75.15 59.06c-2.2 6.25-6.2 11.36-11.18 15.14-12.42 9.46-30.95 10.75-42.69 1.43-9.74-7.75-9.82-18.88-7.94-27.29 1.5-6.79 4.29-11.79 4.29-11.79C-.31 51.5-6.38 44.74 8.01 27.91 22.42 11.1 29.89 8 30.08 16.22c.18 8.22-4.86 55.7 25.24 45.42-13.48.34-17.89-12.97-4.22-23.17 14.76-11.03 30.88 1.13 24.06 20.59Z" style="fill:none"/></clipPath></defs><path d="M24.25 12.74S21.96 0 28.08 0s0 14.54 0 14.54l-3.83-1.8Z" style="fill:#0e0e0e"/><path d="M75.15 59.06c-2.2 6.25-6.2 11.36-11.18 15.14-12.42 9.46-30.95 10.75-42.69 1.43-9.74-7.75-9.82-18.88-7.94-27.29 1.5-6.79 4.29-11.79 4.29-11.79C-.31 51.5-6.38 44.74 8.01 27.91 22.42 11.1 29.89 8 30.08 16.22c.18 8.22-4.86 55.7 25.24 45.42-13.48.34-17.89-12.97-4.22-23.17 14.76-11.03 30.88 1.13 24.06 20.59Z" style="fill:#ff705e"/><path d="M55.31 61.64c15.42-4.01 10.98-29.53-3.55-8.97" style="fill:none;stroke:#e04343;stroke-miterlimit:10;stroke-width:3.6px"/><path d="M63.97 74.2c-12.42 9.46-30.95 10.75-42.69 1.43-9.74-7.75-9.82-18.88-7.94-27.29 20.22 8.14 22.03 28.3 22.03 28.3 14.86-9.07 25.43-4.31 28.6-2.44Z" style="fill:#ffa791"/><path d="M22.78 27.65c-2.09 2.09-5.66 1.12-6.44-1.74-.77-2.86 1.83-5.47 4.7-4.7 2.86.77 3.83 4.35 1.74 6.44Z" style="fill:#0e0e0e"/><g style="clip-path:url(#a)"><path d="M33.13 43.08c-8.86 17.69-21.78 10.86-21.78 10.86m27.73 3.29c1.78 13.2-15.82 21.58-15.82 21.58m25.23-17.28c6.6 8.16 6.15 20.67 6.15 20.67m9.79-29.14c7.01-3.12 13.81 5.03 13.81 5.03M50 36.29c-.62 4.61 6.79 10.63 6.79 10.63M5.84 26.83c-1.43 7.93 7.67 15.86 7.67 15.86" style="fill:none;stroke:#e04343;stroke-miterlimit:10;stroke-width:3.6px"/></g></svg>