<svg xmlns="http://www.w3.org/2000/svg" width="70.25" height="51.95"><path d="m30.75 51.41-17.73-14c-.4-.32-.6-.83-.5-1.34.09-.5.46-.92.95-1.07l54.98-17.28c.53-.17 1.1 0 1.47.42.36.42.43 1.02.19 1.52-.05.1-5.06 10.41-4.8 24.95l-2.77.05c-.19-10.8 2.33-19.23 3.89-23.39L16.8 36.87l15.67 12.38-1.72 2.17Z" style="fill:#8d7cf7"/><path d="m42.76 51.33 4.1-17.81-15.82-1.25a1.373 1.373 0 0 1-1.26-1.57l3.74-26.8c-.83.15-1.69.3-2.55.45-9.29 1.66-18.89 3.37-23.43.12-1.37-.98-2.2-2.35-2.45-4.06L7.83 0c.15.97.57 1.67 1.33 2.22 3.6 2.58 13.42.82 21.32-.6 1.53-.27 3.02-.54 4.44-.77.43-.07.88.07 1.19.38.32.31.47.75.4 1.18l-3.8 27.22 15.95 1.26c.4.03.77.23 1.01.56.24.33.32.74.23 1.13l-4.46 19.37-2.7-.62Z" style="fill:#5d4dc4"/><path d="M1.2 33.93 0 31.43c11.25-5.39 18.21-19.17 18.27-19.31.22-.44.65-.73 1.14-.76.49-.04.96.19 1.24.59l11.42 16.27L55.52.98c.39-.45 1.03-.6 1.58-.38.56.23.9.79.85 1.38l-1.22 16.36-2.76-.21.91-12.17L33 31.35c-.28.32-.69.5-1.12.48a1.36 1.36 0 0 1-1.06-.59l-11.16-15.9c-2.46 4.23-8.91 14-18.46 18.57Z" style="fill:#5d4dc4"/><path d="M33.22 34.21c-5.48.32-9.2-4.38-6.69-8.46s9.37-4.48 12.34-.72c2.97 3.76-.17 8.86-5.65 9.18Z" style="fill:#f7f7f7"/><path d="M33.05 30.13c-2.87-1.29-3.6-4.44-1.32-5.68s5.86.37 6.45 2.9-2.26 4.07-5.12 2.78Z"/></svg>