<svg xmlns="http://www.w3.org/2000/svg" width="409.22" height="236.79"><defs><clipPath id="b"><path d="M246.4 38.43c-5.18 0-12.47-.97-22.62.42-10.16 1.41-8.82 6.59-8.82 19.99h-16.97s-2.38-35.74 2.49-40.61c4.86-4.86 39.02-8.21 44.4-7.99 2.43.09 4.04 6.45 4.58 12.29.67 7.09-.23 15.9-3.06 15.9Z" style="clip-rule:evenodd;fill:none"/></clipPath><clipPath id="c"><path d="m253.47 71.34-5.78-10.17a3.634 3.634 0 0 0-2.45-1.76c-56.16-10.9-80.94 2.51-81.6 14.4 51.66-2.47 89.82-2.47 89.82-2.47Z" style="clip-rule:evenodd;fill:none"/></clipPath><clipPath id="d"><path d="m131.27 106.73-.62 92.42s-21.48-7.21-25.25-11.89c-.29-.36-.55-1.01-.78-1.95-2.89-11.46-2.28-63.16.78-66.62 1.92-2.18 10.34-5.87 17.06-8.57 4.85-1.96 8.82-3.4 8.82-3.4Z" style="clip-rule:evenodd;fill:none"/></clipPath><clipPath id="e"><path d="M308.02 87.76h-15.31l-21.27-8.95c7.13-25.04 11.41-25.3 20.49-25.3h16.1c5.69 0 5.56 34.24 0 34.24Z" style="clip-rule:evenodd;fill:none"/></clipPath><clipPath id="f"><path d="M147.18 79.16C129.16 91.77 127 110.27 127 150.25s-3.24 66.2 20.18 76.29 86.12 16.06 127.92 1.73c41.8-14.33 52.25-39.82 52.25-79.43s-30.36-69.68-72.48-77.97c-42.12-8.29-89.68-4.32-107.69 8.29Z" style="clip-rule:evenodd;fill:none"/></clipPath><radialGradient id="a" cx="298.05" cy="76.44" fx="298.05" fy="76.44" r="77.92" gradientTransform="matrix(1.1198 -.02091 -.01795 .85048 -13.53 14.24)" gradientUnits="userSpaceOnUse"><stop offset="0" stop-color="#fff" stop-opacity=".9"/><stop offset=".26" stop-color="#fff" stop-opacity=".61"/><stop offset=".52" stop-color="#fff" stop-opacity=".35"/><stop offset=".74" stop-color="#fff" stop-opacity=".16"/><stop offset=".91" stop-color="#fff" stop-opacity=".04"/><stop offset="1" stop-color="#fff" stop-opacity="0"/></radialGradient></defs><path d="M329.26 144.27c-69.93 11.49-123.4-40.78-96.26-94.09S347.55-17.5 390.33 24.32c42.78 41.82 8.85 108.46-61.07 119.96Z" style="fill:url(#a);fill-rule:evenodd"/><path d="M246.4 38.43c-5.18 0-12.47-.97-22.62.42-10.16 1.41-8.82 6.59-8.82 19.99h-16.97s-2.38-35.74 2.49-40.61c4.86-4.86 39.02-8.21 44.4-7.99 2.43.09 4.04 6.45 4.58 12.29.67 7.09-.23 15.9-3.06 15.9Z" style="fill:#b39fd8;fill-rule:evenodd"/><path d="M246.4 38.43c-5.18 0-12.47-.97-22.62.42-10.16 1.41-8.82 6.59-8.82 19.99l-10.03.88c-9.98-35.04 28.73-20.95 39.22-38.26 1.86 0 3.62.39 5.31 1.07.67 7.09-.23 15.9-3.06 15.9Z" style="fill:#7a6ca6;fill-rule:evenodd"/><ellipse cx="243.78" cy="24.63" rx="13.04" ry="13.87" transform="rotate(-14.85 243.7 24.619)" style="fill:#857cfc"/><ellipse cx="243.78" cy="24.63" rx="13.04" ry="13.87" transform="rotate(-14.85 243.7 24.619)" style="fill:none;stroke:#4d4576;stroke-miterlimit:10;stroke-width:2.97px"/><g style="clip-path:url(#b)"><path d="M222.07 10.41c-15.67 2.6-8.87 31.72 3.03 30.99M216.32 47.03c-6.66-5.73-19.99 0-19.99 0" style="fill:none;stroke:#7a6ca6;stroke-miterlimit:10;stroke-width:3.16px"/></g><path d="M234.17 23.57c8.83-13.15 17.25-3.89 19.68-.66.45.6.51 1.4.16 2.07-7.53 14.4-16.95 4.41-19.75.86-.52-.66-.55-1.58-.08-2.28Z" style="fill:#fff"/><ellipse cx="247.1" cy="24.66" rx="4.41" ry="4.58" style="fill:#1e1940"/><path d="m253.47 71.34-5.78-10.17a3.634 3.634 0 0 0-2.45-1.76c-56.16-10.9-80.94 2.51-81.6 14.4 51.66-2.47 89.82-2.47 89.82-2.47Z" style="fill:#7a6ca6;fill-rule:evenodd"/><g style="clip-path:url(#c)"><path d="M253.65 65.65c-57.5-12.37-89.02 2.81-89.02 2.81" style="fill:none;stroke:#4d4576;stroke-miterlimit:10;stroke-width:3.16px"/></g><path d="m106.56 140.54-.97 8.43c-12.09-.71-21.7-3.8-28.54-8.23-9.46-6.14-13.59-14.86-11.59-23.46 3.03-12.97 20.99-12.71 34.51 9.53 2.37 3.89 4.61 8.45 6.59 13.72Z" style="fill:#ffc32b;fill-rule:evenodd"/><path d="m106.56 140.54-.97 8.43c-12.09-.71-21.7-3.8-28.54-8.23 11.15.88 23.07-2.73 22.92-13.93 2.37 3.89 4.61 8.45 6.59 13.72Z" style="fill:#c27f04;fill-rule:evenodd"/><path d="M107.29 160.26c-2.58 8.8-5.91 15.66-9.57 20.78-11.31 15.86-25.64 15.1-29.57 3.99-3.33-9.39.88-18 11.71-24.05 6.44-3.61 15.23-6.29 26.17-7.69l1.26 6.96Z" style="fill:#ffc32b;fill-rule:evenodd"/><path d="M107.29 160.26c-2.58 8.8-5.91 15.66-9.57 20.78-1.37-11.49-5.88-19.85-17.86-20.06 6.44-3.61 15.23-6.29 26.17-7.69l1.26 6.96Z" style="fill:#c27f04;fill-rule:evenodd"/><path d="M105.59 148.97c-38.4-12.02-55.04 3.82-32.71 7.17s32.71-3.48 32.71-3.48v-3.69Z" style="fill:#ffc32b;fill-rule:evenodd"/><path d="m131.27 106.73-.62 92.42s-21.48-7.21-25.25-11.89c-.29-.36-.55-1.01-.78-1.95-2.89-11.46-2.28-63.16.78-66.62 1.92-2.18 10.34-5.87 17.06-8.57 4.85-1.96 8.82-3.4 8.82-3.4Z" style="fill:#b39fd8;fill-rule:evenodd"/><g style="clip-path:url(#d)"><path style="fill:none;stroke:#7a6ca6;stroke-miterlimit:10;stroke-width:3.16px" d="m131.09 136.95-30.69 2.13M100.4 164.93l30.69 2.12"/></g><path d="m131.27 106.73-.62 92.42s-21.48-7.21-25.25-11.89c-.29-.36-.55-1.01-.78-1.95 16.44.62 17.84-24.42 17.84-75.19 4.85-1.96 8.82-3.4 8.82-3.4Z" style="fill:#7a6ca6;fill-rule:evenodd"/><path d="M308.02 87.76h-15.31l-21.28-8.94c1.48-5.18 2.84-9.3 4.14-12.57 4.98-12.57 9.16-12.72 16.36-12.72h16.1c8.51 0 8.23 34.23 0 34.23Z" style="fill:#ffc32b;fill-rule:evenodd"/><path d="M308.1 82.6c-3.42 0-3.25-23.92 0-23.92 3.75 0 3.66 23.92 0 23.92Z" style="fill:#fff;fill-rule:evenodd"/><g style="clip-path:url(#e)"><path d="M294.52 50.74c-5.55 0-5.38 39.78 0 39.78M301.97 50.74c-5.98 0-5.79 39.78 0 39.78" style="fill:none;fill-rule:evenodd;stroke:#c27f04;stroke-miterlimit:10;stroke-width:3.16px"/></g><path d="M305.6 87.76h-12.89l-21.28-8.94c1.48-5.18 2.84-9.3 4.14-12.57 4.28.26 8.97 3.5 12.75 13.57 0 0 7.5-5.81 17.28 7.94ZM326.14 135.39l-1.89 44.21c19.45-24.05 18.64-19.74 1.89-44.21Z" style="fill:#c27f04;fill-rule:evenodd"/><path d="M327.35 148.84c0 14.55-1.4 27.17-5.26 38.06-6.62 18.77-20.52 32.32-46.99 41.38-41.8 14.33-104.5 8.36-127.92-1.73-15.01-6.46-19.07-19.55-20.04-38.64-.56-10.69-.14-23.29-.14-37.66 0-24.73.84-41.25 5.74-53.24 3-7.38 7.57-13.04 14.44-17.85 18.02-12.61 65.58-16.58 107.69-8.29 13.94 2.74 26.6 7.87 37.28 14.94 21.61 14.3 35.19 36.52 35.19 63.03Z" style="fill:#ffc32b;fill-rule:evenodd"/><path d="M292.16 85.81c-43.12-19.3-58.76-11.96-88.08-12-29.64-.05-59.59 2.25-71.33 23.2 3-7.38 7.57-13.04 14.44-17.85 18.02-12.61 65.58-16.58 107.69-8.29 13.94 2.74 26.6 7.87 37.28 14.94Z" style="fill:#ffe54f;fill-rule:evenodd"/><path d="M322.09 186.9c-6.07 17.19-18.25 30.01-40.6 38.99-2.04.84-4.17 1.63-6.39 2.39-38.43 13.18-94.52 9.2-121.51.62-2.37-.74-4.51-1.54-6.4-2.34-15.01-6.46-19.07-19.55-20.04-38.64 43.4-43.27 145.71 34.9 194.95-1.01Z" style="fill:#d18100;fill-rule:evenodd;opacity:.45"/><path d="M281.49 225.89c-2.04.84-4.17 1.63-6.39 2.39-38.43 13.18-94.52 9.2-121.51.62 14.83-2.77 35.39-3.39 58.5 5.13 0 0 15.38-9.65 69.4-8.13Z" style="fill:#c27f04;fill-rule:evenodd"/><ellipse cx="161.53" cy="82.01" rx="3.09" ry="2.98" style="fill:#c27f04"/><ellipse cx="200.99" cy="79.04" rx="3.09" ry="2.98" style="fill:#c27f04"/><ellipse cx="237.22" cy="79.81" rx="3.09" ry="2.98" style="fill:#c27f04"/><ellipse cx="272.85" cy="82.79" rx="3.09" ry="2.98" style="fill:#c27f04"/><ellipse cx="187.38" cy="222.82" rx="2.98" ry="3.09" transform="rotate(-89.53 187.362 222.822)" style="fill:#c27f04"/><ellipse cx="226.86" cy="220.18" rx="2.98" ry="3.09" transform="rotate(-89.53 226.844 220.18)" style="fill:#c27f04"/><ellipse cx="263.09" cy="219.83" rx="2.98" ry="3.09" transform="rotate(-89.53 263.076 219.836)" style="fill:#c27f04"/><g style="clip-path:url(#f)"><path d="M307.49 212.33h-87.75c-22.87 0-47.2 2.26-55.28 22.17M305.17 93.76c-52.38-9.04-164.74-11.24-177.3 9.65" style="fill:none;fill-rule:evenodd;stroke:#c27f04;stroke-miterlimit:10;stroke-width:3.16px"/></g><ellipse cx="288.6" cy="151.34" rx="18.81" ry="18.49" transform="rotate(-65.39 288.585 151.345)" style="fill:#fff"/><ellipse cx="288.6" cy="151.34" rx="19.65" ry="19.31" transform="rotate(-65.39 288.585 151.345)" style="fill:none;stroke:#c27f04;stroke-miterlimit:10;stroke-width:3.16px"/><path d="M297.82 160.47c-4.85 4.84-12.26 5.45-17.46 1.73-.57-.4-1.12-.86-1.62-1.37a12.634 12.634 0 0 1-2.87-4.4c-1.88-4.83-.79-10.65 3.25-14.68 1.28-1.28 2.73-2.26 4.28-2.94 3.32-1.49 7.08-1.6 10.37-.32 1.62.62 3.13 1.58 4.43 2.88 5.17 5.17 5 13.71-.37 19.09Z" style="fill:#857cfc;fill-rule:evenodd"/><path d="M297.82 160.47c-4.85 4.84-12.26 5.45-17.46 1.73-.57-.4-1.12-.86-1.62-1.37a12.634 12.634 0 0 1-2.87-4.4c-1.88-4.83-.79-10.65 3.25-14.68 1.28-1.28 2.73-2.26 4.28-2.94 3.32-1.49 7.08-1.6 10.37-.32 1.62.62 3.13 1.58 4.43 2.88 5.17 5.17 5 13.71-.37 19.09Z" style="fill:none;fill-rule:evenodd;stroke:#4742a1;stroke-miterlimit:10;stroke-width:2.84px"/><path d="M316.78 110.94c-4.28 2.59-10.88 5.14-18.48 5.56-15.02.84-34-4.98-47.01-1.71-25.09 6.32-35.39 29.74-57.37 29.86-20.57.1-36.05-20.76-66.93 10.86 0-1.72.02-3.48.02-5.26 0-15.47.32-27.73 1.77-37.66 13.7 8.46 28.99-14.21 46.07-15.58 28.47-2.29 46.92 14.91 63.38 8.03 24.88-10.4 43.29 8.78 63.23-3.63 2.11-1.31 3.99-2.32 5.69-3.06a75.7 75.7 0 0 1 9.65 12.59Z" style="fill:#ffe84f;fill-rule:evenodd"/><ellipse cx="205.03" cy="150.61" rx="41.51" ry="43.16" transform="rotate(-70.54 205.037 150.613)" style="fill:#fff"/><path d="M235.92 167.37c-5.07 9.35-14.09 15.27-24.08 16.9-7.52 1.23-15.6.03-22.93-3.94-13.47-7.31-20.43-21.81-18.37-35.67.55-3.7 1.74-7.35 3.6-10.8 8.9-16.4 29.94-22.21 47-12.95 17.07 9.25 23.68 30.06 14.78 46.46Z" style="fill:#857cfc;fill-rule:evenodd"/><ellipse cx="205.03" cy="150.61" rx="41.82" ry="43.49" transform="rotate(-70.54 205.037 150.613)" style="fill:none;stroke:#c27f04;stroke-miterlimit:10;stroke-width:3.16px"/><path d="M211.84 184.26c-7.52 1.23-15.6.03-22.93-3.94-13.47-7.31-20.43-21.81-18.37-35.67.88 22.94 42.45 20.39 41.3 39.61Z" style="fill:#050061;fill-rule:evenodd;opacity:.36"/><path d="M235.92 167.37c-5.07 9.35-14.09 15.27-24.08 16.9-7.52 1.23-15.6.03-22.93-3.94-13.47-7.31-20.43-21.81-18.37-35.67.55-3.7 1.74-7.35 3.6-10.8 8.9-16.4 29.94-22.21 47-12.95 17.07 9.25 23.68 30.06 14.78 46.46Z" style="fill:none;fill-rule:evenodd;stroke:#4742a1;stroke-miterlimit:10;stroke-width:3.16px"/><ellipse cx="228.47" cy="143.03" rx="4.06" ry="9.73" transform="rotate(-26.46 228.505 143.045)" style="fill:#c3bdff"/><ellipse cx="218.7" cy="128.5" rx="2.42" ry="3.15" transform="rotate(-45 218.697 128.503)" style="fill:#c3bdff"/><ellipse cx="56.71" cy="163.83" rx="4.63" ry="4.45" transform="rotate(-31.85 56.706 163.821)" style="fill:#f7f7f7"/><ellipse cx="97.43" cy="109.53" rx="4.44" ry="4.27" transform="rotate(-21.12 97.443 109.556)" style="fill:#e2dcfe"/><ellipse cx="91.69" cy="202.05" rx="5.88" ry="5.66" transform="rotate(-19.8 91.68 202.044)" style="fill:#f7f7f7"/><path d="M39.42 108.78c-3.35 2.04-7.66-.31-7.75-4.24s4.1-6.48 7.55-4.59 3.56 6.79.2 8.83ZM31.85 186.95c-4.59 2.79-11.03-1.33-11.59-7.42-.56-6.09 5.18-9.58 10.33-6.29s5.85 10.91 1.26 13.71Z" style="fill:#f7f7f7;fill-rule:evenodd"/><path d="M5.08 130.76c-3.9 0-6.34-4.22-4.39-7.6s6.83-3.38 8.78 0-.49 7.6-4.39 7.6ZM46.08 140.14c-1.49 3.24-5.92 3.66-7.99.75s-.21-6.96 3.34-7.3 6.13 3.3 4.65 6.54Z" style="fill:#e2dcfe;fill-rule:evenodd"/><path d="M58.95 136.87C56.6 50.3 77.1 76.06 74.34 101.76M76.77 63.59c7.72-1.09 8.61 17.91 8.61 33.42M79.22 174.91c-5.38 61.87 11.36 68.61 11.36 40.03" style="fill:none;fill-rule:evenodd;stroke:#aba1ff;stroke-miterlimit:10;stroke-width:3.11px"/><ellipse cx="294.82" cy="146.87" rx="2.7" ry="4.54" transform="rotate(-26.46 294.863 146.886)" style="fill:#c3bdff"/></svg>