<svg xmlns="http://www.w3.org/2000/svg" width="82.79" height="67.68"><path d="M28.14 39.49c0-9.15-17.51-26.98-25.87-21.91S11.29 35 11.29 35C.94 42.68 2.74 52.06 9.5 54.91c7.29 3.07 18.63-2.41 18.63-15.41ZM41.1 56.08c-1.99 16.69 15.43 14.23 21.61-.09l-21.61.09ZM65.44 17.81c-6.78-26.32-28.11-21.17-26.64.51l32.27 5.25c8.52-17.24-.71-24.67-5.63-5.76Z" style="fill:#8d7cf7"/><path d="M82.27 39.69C59.71 1.77 43.21 3.84 25.07 38.26a4.186 4.186 0 0 0-.04 3.82c11.99 23.97 45.53 16.77 57.07 1.58.87-1.15.91-2.73.17-3.97Z" style="fill:#b8aeff"/><path d="M56.24 10.62c-14.69 23.73-5.49 48.77-5.49 48.77" style="fill:none;stroke:#8d7cf7;stroke-miterlimit:10;stroke-width:3.8px"/><circle cx="66.73" cy="36.21" r="4.02" style="fill:#0e0e0e"/><path d="M43.31 37.18c.46.73.23 1.71-.52 2.15-1.51.9-4.18 2.12-6.74 1.51-3.88-.93-6.58-3.49-6.05-5.72s4.11-3.28 7.99-2.35c2.56.62 4.38 2.92 5.32 4.41Z" style="fill:#8d7cf7"/></svg>