<svg xmlns="http://www.w3.org/2000/svg" width="91.84" height="55.34"><defs><clipPath id="a"><path d="M91.84 34.36C75.13-13.48 37.28 6.01 22.36 28.12c-.61.9-.66 2.09-.08 3.01 30.25 48.03 69.56 3.23 69.56 3.23Z" style="fill:none"/></clipPath></defs><path d="M62.05 7.04C23.58-12.42-8.14 13.29 27.81 26.05c18.34-8.1 34.24-19.01 34.24-19.01ZM25.77 36.21l24.69 16.76C28.17 60.29.24 49.48 25.77 36.21Z" style="fill:#151ec2"/><path d="M91.84 34.36C75.13-13.48 37.28 6.01 22.36 28.12c-.61.9-.66 2.09-.08 3.01 30.25 48.03 69.56 3.23 69.56 3.23Z" style="fill:#50d985"/><path d="M91.84 34.36C75.13-13.48 37.28 6.01 22.36 28.12c-.61.9-.66 2.09-.08 3.01 30.25 48.03 69.56 3.23 69.56 3.23Z" style="fill:#3853ff"/><path d="M66.51 35.17c8.54 5.5 17.8 2.86 16.66-4.76S71.35 15.92 63.95 18.03c-7.4 2.11-5.98 11.63 2.56 17.13Z" style="fill:#7388ff"/><path d="M67.41 29.71c2.28 2.9 6.86 2.24 8.25-1.2s-1.45-7.06-5.12-6.53c-3.67.53-5.41 4.83-3.13 7.73Z" style="fill:#0e0e0e"/><path d="M19.73 29.77c-.02.88-.47 1.7-1.18 2.22-22.86 16.64-26.43-19.59-.26-4.76.91.52 1.47 1.49 1.44 2.53Z" style="fill:#151ec2"/><g style="clip-path:url(#a)"><path d="M64.71 3.44c-11.31 9.77-15.36 26.4-9.75 40.24 1.79 4.2 4.5 8.79 9.2 9.9l-.22 2.13c-2.95-.14-5.55-1.79-7.6-3.77-11.21-12.2-10.13-33.07.94-45.01 1.88-1.95 3.91-3.72 6.12-5.19l1.31 1.7Z" style="fill:#151ec2"/><path d="M47.69 6.02c-10.64 8.1-5.09 22-5.09 22-10.62 12.91 2.06 23.88 2.06 23.88M34.66 12.58c-11.53 14.3-2.68 32.67-2.68 32.67" style="fill:none;stroke:#7388ff;stroke-miterlimit:10;stroke-width:2.85px"/></g><path d="M44.37 28.62c-.99 5.68-11.6 5.78-12.76.97-1.16-4.81 13.75-6.65 12.76-.97Z" style="fill:#151ec2"/></svg>