<svg xmlns="http://www.w3.org/2000/svg" width="104.31" height="138.67"><defs><clipPath id="a"><path d="M85.74 132.61c-10.46 12.26-21.89 4.71-27.4-11.81-2.16 19.21-23.62 19.62-26.17-26.28-13.29-4.69-8.6-24.19-6.73-44.98.43-4.81.71-9.68.58-14.45 21.77-7.18 43.46-10.38 43.46-10.38 1.44 13.29 8.7 19.74 15.49 24.52 5 3.52 9.75 6.15 11.71 9.96 4.62 8.97-.37 17.92-.37 17.92s17.76 18.74.34 34.29c11.19 20.62-4.35 28.88-10.92 21.22Z" style="clip-rule:evenodd;fill:none"/></clipPath></defs><path d="M85.74 132.61c-10.46 12.26-21.89 4.71-27.4-11.81-2.16 19.21-23.62 19.62-26.17-26.28-13.29-4.69-8.6-24.19-6.73-44.98.43-4.81.71-9.68.58-14.45 21.77-7.18 43.46-10.38 43.46-10.38 1.44 13.29 8.7 19.74 15.49 24.52 5 3.52 9.75 6.15 11.71 9.96 4.62 8.97-.37 17.92-.37 17.92s17.76 18.74.34 34.29c11.19 20.62-4.35 28.88-10.92 21.22Z" style="fill:#b8aeff;fill-rule:evenodd"/><path d="M84.98 49.22c-7.38 2.56-17.18.59-24.43-3.9 0 0-10.64 14.8-35.11 4.21.43-4.81.71-9.68.58-14.45C47.79 27.9 69.48 24.7 69.48 24.7c1.44 13.29 8.7 19.74 15.49 24.52Z" style="fill:#8d7cf7;fill-rule:evenodd"/><g style="clip-path:url(#a)"><path d="M101.52 77.21C77.11 63.5 64.38 30.87 64.38 30.87M60.55 45.32c-3.59 23.44 15.29 40.4 24.42 58.76 5.48 11.02 7.37 24.65 1.66 31.54M58.1 128.14c-9.98-27.76-3.29-45.5-11.12-64.85M29.93 97.43c-2.05-20.03 9.62-40.87-1.05-61.94" style="fill:none;fill-rule:evenodd;stroke:#8d7cf7;stroke-miterlimit:10;stroke-width:3.8px"/></g><path d="M80.31 6.2c11.13 10.27 1.52 24.57-9.03 15.36 2.18 15.68-10.34 14.38-16.81 7.91 0 14.04-16.46 16.58-20.67 6.67-5.59 15.19-18.44 12.82-19 1.51C1.45 47.96-2.34 35.04 1.32 28.04S80.31 6.2 80.31 6.2Z" style="fill:#f7f7f7;fill-rule:evenodd"/><path d="M4.07 32.16c11.96 7.95 62.02-4.9 73.72-19.22C89.48-1.4 59.64-2.25 40.3 2.83 21.52 7.77-7.89 24.2 4.07 32.16Z" style="fill:#b8aeff;fill-rule:evenodd"/></svg>