<?xml version="1.0" encoding="UTF-8"?><svg id="a" xmlns="http://www.w3.org/2000/svg" width="198.97" height="148.37" viewBox="0 0 198.97 148.37"><path d="M50.13,146.9C55.09,84.9,20.5,23.8,20.5,23.8" style="fill:none; fill-rule:evenodd; stroke:#8d7cf7; stroke-miterlimit:10; stroke-width:4.84px;"/><path d="M65.33,145.35c38.9-43.18,52.97-75.97,52.97-75.97" style="fill:none; fill-rule:evenodd; stroke:#8d7cf7; stroke-miterlimit:10; stroke-width:4.84px;"/><path d="M174.39,51.68c-31.2,64.24-76.76,94.21-76.76,94.21" style="fill:none; fill-rule:evenodd; stroke:#8d7cf7; stroke-miterlimit:10; stroke-width:4.84px;"/><path d="M172.14,114.49c-22.94,23.25-37.17,31.8-37.17,31.8" style="fill:none; fill-rule:evenodd; stroke:#8d7cf7; stroke-miterlimit:10; stroke-width:4.84px;"/><path d="M93.37,26.42c-16.58,39.77,5.77,73.4,5.77,73.4" style="fill:none; fill-rule:evenodd; stroke:#8d7cf7; stroke-miterlimit:10; stroke-width:4.84px;"/><line x1="55.39" y1="43.97" x2="41.07" y2="71.13" style="fill:none; stroke:#8d7cf7; stroke-miterlimit:10; stroke-width:4.84px;"/><path d="M29.98,24.36C10.64,33.79-5.14,32.1,1.57,21.32,8.28,10.54,32.46-1.25,45.08,.11c12.63,1.35,4.24,14.83-15.1,24.26Z" style="fill:#b8aeff; fill-rule:evenodd;"/><path d="M56.81,47.76c-9.38-5.48-12.82-13.04-6.2-13.6s18.34,6.29,21.1,12.34c2.76,6.05-5.52,6.75-14.9,1.26Z" style="fill:#8d7cf7; fill-rule:evenodd;"/><path d="M98.46,28.83c-22.32-4.62-34.69-15.09-22.28-18.85,12.41-3.76,40.31,2.02,50.21,10.4s-5.62,13.07-27.93,8.45Z" style="fill:#8d7cf7; fill-rule:evenodd;"/><path d="M116.42,77.3c-12.72-3.44-19.11-11.37-11.5-14.26,7.61-2.89,23.51,1.41,28.62,7.75,5.11,6.34-4.4,9.96-17.12,6.51Z" style="fill:#8d7cf7; fill-rule:evenodd;"/><path d="M171.51,57.77c-18.56-6.72-27.58-18.07-16.23-20.43,11.35-2.36,34.56,6.04,41.77,15.12,7.21,9.08-6.98,12.03-25.55,5.31Z" style="fill:#b8aeff; fill-rule:evenodd;"/><path d="M170.27,120.1c-13.84-5.16-20.76-13.05-12.45-14.2,8.31-1.16,25.62,5.29,31.15,11.6,5.53,6.31-4.86,7.76-18.7,2.6Z" style="fill:#8d7cf7; fill-rule:evenodd;"/><path d="M80.41,74.54c-12.77-1.98-20.08-7.52-13.16-9.98,6.92-2.46,22.88,.02,28.73,4.45,5.85,4.43-2.8,7.5-15.57,5.52Z" style="fill:#b8aeff; fill-rule:evenodd;"/><path d="M36.16,99.03c-16.38,1.7-27.19-2.76-19.46-8.03,7.73-5.27,28.21-7.4,36.86-3.83s-1.01,10.16-17.4,11.86Z" style="fill:#e2dcfe; fill-rule:evenodd;"/><path d="M91.71,114.29c21.01,1.96,36.37-11.02,36.37-11.02" style="fill:none; fill-rule:evenodd; stroke:#8d7cf7; stroke-miterlimit:10; stroke-width:4.84px;"/><path d="M125.1,109.31c-12.88-7.15-17.31-18.12-7.99-19.75s25.42,7.3,28.97,16.08c3.55,8.78-8.11,10.82-20.99,3.68Z" style="fill:#e2dcfe; fill-rule:evenodd;"/></svg>