<?xml version="1.0" encoding="UTF-8"?><svg id="a" xmlns="http://www.w3.org/2000/svg" width="486.97" height="162.65" viewBox="0 0 486.97 162.65"><path d="M460.52,81.72c37.24-12.35,26.97,6.81,.57,9.64-26.4,2.84-24.71-18.33,21.64-26.35" style="fill:none; stroke:#b8aeff; stroke-linecap:round; stroke-linejoin:round; stroke-width:4.31px;"/><g><path d="M424.27,88.34c-5.02,18.4-16.3,42.99-37.15,74.08l-11.68,.23s2.93-70.91,23-103.66c10.68-17.44,26.81-16.85,28.89,3.42-7.15,1.57-12.43,6.99-12.43,13.44,0,5.49,3.82,10.24,9.37,12.5Z" style="fill:#8d7cf7;"/><path d="M347.52,162.37h17.07c2.71-77.75-60.66-27.81-17.07,0Z" style="fill:#8d7cf7;"/></g><g><path d="M235.82,57.39c-13.71,34.8-38.13,78.11-73.05,104.71h-15.03c34.96-42.48,55.72-82.79,67.81-111.29,9.1-21.42,13.3-36.17,14.99-40.17,5.16-12.25,12.59-12.52,17.3-7.84,3.26,3.25-.78,26.06-12.02,54.58Z" style="fill:#8d7cf7;"/><path d="M235.82,57.39s-14.35,4.33-20.26-6.58c9.1-21.42,13.3-36.17,14.99-40.17,5.16-12.25,12.59-12.52,17.3-7.84,3.26,3.25-.78,26.06-12.02,54.58Z" style="fill:#b8aeff;"/><path d="M218.32,148.03c-7.96,5.45-17.22,10.44-27.36,14.12h-20.85c15.34-11.22,27.88-21.18,38.07-29.35h0c22.43-17.99,33.57-27.33,38.48-22.57,5.21,5.05-6.88,23.12-28.34,37.8Z" style="fill:#8d7cf7;"/><path d="M218.32,148.03h0s-10.12-4.17-10.13-15.23h0c22.43-17.99,33.57-27.33,38.48-22.57,5.21,5.05-6.88,23.12-28.34,37.8Z" style="fill:#f7f7f7;"/><path d="M190.23,38.18c0,6.17-3.78,27.27-17.53,58.02-8.38,18.78-20.48,41.17-37.71,65.96h-16.56c17.26-24.08,28.64-51.52,36.35-74.27,6.27-18.49,10.13-33.9,12.77-41.93,5.88-17.91,22.68-17.74,22.68-7.78Z" style="fill:#8d7cf7;"/><path d="M190.23,38.18c0,6.17-3.78,27.27-17.53,58.02-6.16-.5-13.55-2.44-17.91-8.31,6.27-18.49,10.13-33.9,12.77-41.93,5.88-17.91,22.68-17.74,22.68-7.78Z" style="fill:#b8aeff;"/><path d="M127.51,110.23c-3.22,14.19-9.32,31.77-19.33,51.92h-11.92s6.92-33.86,10.53-57.63c.37-2.43,.71-4.77,1-6.95,3.12-23.42,11.16-31.14,18.54-25.54,4.42,3.36,5.98,16.99,1.17,38.19Z" style="fill:#8d7cf7;"/><path d="M127.51,110.23s-12.7,2.11-20.71-5.67v-.04c.37-2.43,.71-4.77,1-6.95,3.12-23.42,11.16-31.14,18.54-25.54,4.42,3.36,5.98,16.99,1.17,38.19Z" style="fill:#b8aeff;"/><path d="M96.26,162.15h-10.22c-3.71-41.69-11.98-78.32-17.77-104.93-4.82-22.18-7.92-37.4-5.22-42.81,5.96-11.89,16.17-8.58,20.14,6.84,1.46,5.65,4.19,15.68,6.84,29.93,4.59,24.64,8.97,61.89,6.22,110.97Z" style="fill:#8d7cf7;"/><path d="M90.04,51.18c-8.29,8.05-21.32,6.1-21.77,6.04-4.82-22.18-7.92-37.4-5.22-42.81,5.96-11.89,16.17-8.58,20.14,6.84,1.46,5.65,4.19,15.68,6.84,29.93Z" style="fill:#b8aeff;"/><path d="M79.91,162.15h-12.49c-4.4-9.88-12-20.41-20.01-29.96-9.53-11.37-19.64-21.34-25.64-27.18-11.03-10.75-8.56-21.93,5.89-18.55,9.18,2.14,21.04,14.18,32.75,34.08,6.72,11.41,13.39,25.4,19.5,41.61Z" style="fill:#8d7cf7;"/><path d="M60.41,120.55c-2.65,8.71-13,11.65-13,11.65-9.53-11.37-19.64-21.34-25.64-27.18-11.03-10.75-8.56-21.93,5.89-18.55,9.18,2.14,21.04,14.18,32.75,34.08Z" style="fill:#e2dcfe;"/><path d="M52.32,162.15C33.17,124,12.1,117.42,5.23,118.98c-6.87,1.56-8.06,12.81,3.11,16.6,19.19,6.51,34.77,26.57,34.77,26.57h9.22Z" style="fill:#e2dcfe;"/></g></svg>