<svg xmlns="http://www.w3.org/2000/svg" width="72.68" height="55.03"><defs><clipPath id="a"><path d="M45.14 13.4C30.5-5.97 21.81-3.98 24.69 17.06c-15.89 1.79-41.97 10.41-2.84 13.5-5.28 23.02 7.22 24.39 17.89 2.22 19.36 14.99 34.42 14.17 15.79-7.17 22.01-11.75 18.61-17.02-10.4-12.2Z" style="clip-rule:evenodd;fill:none"/></clipPath></defs><path d="M2.57 25.43c-10.86 6.95 16.22 10.71 16.22 10.71-2.25 21.07 11.72 26.18 21.47 6.84 24.13 13.21 28.68.16 18.23-12.86 16.35-3.48 18.02-17.57 7.87-16.35C56.21 14.96 2.57 25.43 2.57 25.43Z" style="fill:#281f70"/><path d="M45.14 13.4C30.5-5.97 21.81-3.98 24.69 17.06c-15.89 1.79-41.97 10.41-2.84 13.5-5.28 23.02 7.22 24.39 17.89 2.22 19.36 14.99 34.42 14.17 15.79-7.17 22.01-11.75 18.61-17.02-10.4-12.2Z" style="fill:#f78f9b;fill-rule:evenodd"/><g style="clip-path:url(#a)"><path d="M63.11 25.08c-11.21-8.3-27.12-6.29-39.05-.52-3.87 2-7.94 4.68-9.86 8.63l-2.03-.82c.97-2.47 2.67-4.45 4.52-6.09 12.3-10.27 34.97-13.92 47.82-2.87l-1.4 1.68Z" style="fill:#ffbaba"/></g><path d="M43.71 30.08c-2.93-1.77-3.47-5.02-.97-5.84s6.16 1.39 6.59 3.98c.43 2.6-2.69 3.63-5.62 1.86Z" style="fill:#ed6d89;fill-rule:evenodd"/></svg>